/* XPM */
static char * Untitled_xpm[] = {
"20 11 11 1",
" 	c #FFFFFF",
".	c #FFF7E9",
"+	c #FFDD9F",
"@	c #FFC04E",
"#	c #FFAF1F",
"$	c #FFA707",
"%	c #FFFBF4",
"&	c #FFB32A",
"*	c #FFA400",
"=	c #FFEDCD",
"-	c #FFD486",
"     .+@#$$#@+.     ",
"    %+&******&+%    ",
"    =@********@=    ",
"    +#********#+    ",
"    -$********$-    ",
"    -$********$-    ",
"    +#********#+    ",
"    =@********@=    ",
"    %+&******&+%    ",
"     .+@#$$#@+.     ",
"      %=+--+=%      "};
