/* XPM */
static char * disbreakpt_xpm[] = {
"20 11 15 1",
" 	c None",
".	c #FFFFFF",
"+	c #FAFAFA",
"@	c #E9E9E9",
"#	c #D6D6D6",
"$	c #CBCBCB",
"%	c #F6F6F6",
"&	c #DADADA",
"*	c #C8C8C8",
"=	c #DFDFDF",
"-	c #EEEEEE",
";	c #D3D3D3",
">	c #E6E6E6",
",	c #E3E3E3",
"'	c #D5D5D5",
"......+@#$$#@+......",
".....%&******&%.....",
"....+=********=+....",
"....-;********;-....",
"....>$********$>....",
"....,**********,....",
"....>$********$>....",
"....-;********;-....",
"....+=********=+....",
".....%&******&%.....",
"......+@'$$'@+......"};
