/* XPM */
static char * distbreakpt_xpm[] = {
"20 11 33 1",
" 	c None",
".	c #FFFFFF",
"+	c #FAFAFA",
"@	c #E9E9E9",
"#	c #D6D6D6",
"$	c #CBCBCB",
"%	c #F6F6F6",
"&	c #DADADA",
"*	c #C8C8C8",
"=	c #DFDFDF",
"-	c #D0D0D0",
";	c #E3E3E3",
">	c #F0F0F0",
",	c #EEEEEE",
"'	c #D3D3D3",
")	c #FEFEFE",
"!	c #E6E6E6",
"~	c #DCDCDC",
"{	c #F8F8F8",
"]	c #C6C6C6",
"^	c #E2E2E2",
"/	c #D5D5D5",
"(	c #A8A8A8",
"_	c #FBFBFB",
":	c #E1E1E1",
"<	c #B4B4B4",
"[	c #F9F9F9",
"}	c #F1F1F1",
"|	c #CACACA",
"1	c #D8D8D8",
"2	c #EDEDED",
"3	c #CECECE",
"4	c #D1D1D1",
"......+@#$$#@+......",
".....%&******&%.....",
"....+=*-;>>;-*=+....",
"....,'-@+))+@-',....",
"....!$~{@]]@{~$!....",
"....;*^)/((/)^*;....",
"....!$=_:<<:_=$!....",
"....,'/>[}}[>/',....",
"....+=|12__21|=+....",
".....%&|3443|&%.....",
"......+@/$$/@+......"};
