/* XPM */
static char * tbreakpt_xpm[] = {
"20 11 16 1",
" 	c None",
".	c #FFFFFF",
"+	c #FFF7E9",
"@	c #FFDD9F",
"#	c #FFC04E",
"$	c #FFAF1F",
"%	c #FFFBF4",
"&	c #FFB32A",
"*	c #FFEDCD",
"=	c #FFE9C4",
"-	c #FFD78F",
";	c #FFC154",
">	c #FFA90F",
",	c #FFD486",
"'	c #FFA400",
")	c #FFC153",
".....+@#$..$#@+.....",
"....%@&......&@%....",
"....*#.%=--=%.#*....",
"....@$.=;>>;=.$@....",
"....,..->''>-..,....",
"....,..->''>-..,....",
"....@$.=)>>)=.$@....",
"....*#.%=--=%.#*....",
"....%@&......&@%....",
".....+@#$..$#@+.....",
"......%*@,,@*%......"};
